<?xml version="1.0" standalone="no"?>
<!DOCTYPE svg PUBLIC "-//W3C//DTD SVG 20010904//EN"
 "http://www.w3.org/TR/2001/REC-SVG-20010904/DTD/svg10.dtd">
<svg version="1.0" xmlns="http://www.w3.org/2000/svg"
 width="32.000000pt" height="32.000000pt" viewBox="0 0 32.000000 32.000000"
 preserveAspectRatio="xMidYMid meet">

<g transform="translate(0.000000,32.000000) scale(0.100000,-0.100000)"
fill="#000000" stroke="none">
<path d="M10 166 c0 -53 4 -98 10 -101 6 -4 10 8 10 29 0 32 3 36 26 36 28 0
65 16 76 34 14 20 8 56 -12 76 -14 14 -33 20 -65 20 l-45 0 0 -94z m94 58 c32
-31 6 -74 -45 -74 -28 0 -29 2 -29 45 0 43 1 45 29 45 16 0 37 -7 45 -16z"/>
<path d="M180 166 c0 -53 4 -98 10 -101 6 -4 10 8 10 28 0 33 2 35 40 40 53 7
70 22 70 62 0 44 -26 65 -83 65 l-47 0 0 -94z m98 62 c15 -15 15 -51 0 -66 -7
-7 -27 -12 -45 -12 -32 0 -33 1 -33 45 0 44 1 45 33 45 18 0 38 -5 45 -12z"/>
</g>
</svg>
